/* XPM */
static char *magick[] = {
/* columns rows colors chars-per-pixel */
"32 32 21 1",
"  c Gray0",
". c #191919",
"X c Gray20",
"o c #00007f",
"O c #007f7f",
"+ c #7f0000",
"@ c #7f007f",
"# c #7f7f00",
"$ c #4c4c4c",
"% c #666667",
"& c Gray50",
"* c Blue",
"= c Cyan",
"- c Red",
"; c Yellow",
": c Gray60",
"> c #b2b2b2",
", c Gray80",
"< c Gray90",
"1 c Gray100",
"2 c None",
/* pixels */
"22222222222..$.O:X 2222222222222",
"222222222 o&O$.==$&X 22222222222",
"2222222 o&O&##+O:$:%>.2222222222",
"2222 Xo$&$%%;:$=>#%:O&ooX 222222",
"2222$;&O$*%o#&+>>#*&%#*;,X222222",
"222 O*#&O&#%:# ==;OX&&,O*O222222",
"222X::%%%%$&;#+O:%&O*O>O>> 22222",
"222X$%oX%&#;-$;$%-;;%oO***o22222",
"22 $$%:$#,#>:,<&#:#$;:$;#;:.2222",
"22%;>#:O$%##&#,;##:#&&XooO*.2222",
"22$:;:;;X:;#;;;;:;:;;#;::#:&2222",
"22O***o;##$X @;>#. X+&;&O*O*2222",
"2X>:::$;&-#&##;&-:##;#;&#;:; 222",
" oO$$$#>;<;;;-::;;;>;,;:**O*O222",
".&:#:;&;;>,;;#,;-;:;,;:&:;###222",
"$*O*O*o%-#1-;;#$;#;;-;:O***O*.22",
"#;#;:::&$$<;:;>;;-;,$X#;-;;;;#22",
"$&O**$X$&;:;>1;->;;#XXoo&O*@:O22",
"%&:::#%O**##;;##;;-OX::::#:#&;.2",
"%o$$#:&>#:#+>,;<;#X#::$$O*%*Ooo2",
":&:#:##X$:&$##;;>+#+##:&&::;:&$.",
"Oo$&::&###%#-;%::##+;#:#:$O**=*.",
".O&:%XX$$$X#<#:O%;#XoOo$O%&$oX$.",
" .X$##&&%o#;;$:=%+;#>>#:##$$X o.",
".$&#$&&O**#;,#O%%##+O@O&&:$#>.. ",
"%,<;%&&oOO#;<#%&O+;$$oO*%&:;>>22",
":,;>#>$oO*#;>;&O:###oooOoO:;;;$2",
";;X#&%OO*o#;;;>=$;;XO*O*%:#X%;:.",
"%. +$&*O*O#@%#%&&%..O*O*O:%. $#X",
"%. #$%XX#:#:$X$=%X%#:%X#$&#..X;X",
"&..$X&OXo:#:>>&%:>##&XXX&&$X X>X",
"&..X#&%X$&#+XX%=%XX$&$X#&$+X.+#."
};
